<svg width="16" height="16" viewBox="0 0 16 16" fill="none" xmlns="http://www.w3.org/2000/svg">
<path d="M2.66667 2H6C6.36794 2 6.66667 2.29872 6.66667 2.66667V6C6.66667 6.36794 6.36794 6.66667 6 6.66667H2.66667C2.29872 6.66667 2 6.36794 2 6V2.66667C2 2.29872 2.29872 2 2.66667 2V2" stroke="#64748B" stroke-width="1.33333" stroke-linecap="round" stroke-linejoin="round"/>
<path d="M9.99998 2H13.3333C13.7013 2 14 2.29872 14 2.66667V6C14 6.36794 13.7013 6.66667 13.3333 6.66667H9.99998C9.63204 6.66667 9.33331 6.36794 9.33331 6V2.66667C9.33331 2.29872 9.63204 2 9.99998 2V2" stroke="#64748B" stroke-width="1.33333" stroke-linecap="round" stroke-linejoin="round"/>
<path d="M9.99998 9.33331H13.3333C13.7013 9.33331 14 9.63204 14 9.99998V13.3333C14 13.7013 13.7013 14 13.3333 14H9.99998C9.63204 14 9.33331 13.7013 9.33331 13.3333V9.99998C9.33331 9.63204 9.63204 9.33331 9.99998 9.33331V9.33331" stroke="#64748B" stroke-width="1.33333" stroke-linecap="round" stroke-linejoin="round"/>
<path d="M2.66667 9.33331H6C6.36794 9.33331 6.66667 9.63204 6.66667 9.99998V13.3333C6.66667 13.7013 6.36794 14 6 14H2.66667C2.29872 14 2 13.7013 2 13.3333V9.99998C2 9.63204 2.29872 9.33331 2.66667 9.33331V9.33331" stroke="#64748B" stroke-width="1.33333" stroke-linecap="round" stroke-linejoin="round"/>
</svg>
