<svg width="12" height="12" viewBox="0 0 12 12" fill="none" xmlns="http://www.w3.org/2000/svg">
<g clip-path="url(#clip0_559_1060)">
<path d="M1.5 7.5H10.5M4.5 5L6 3.5L7.5 5M2.5 1.5H9.5C10.0523 1.5 10.5 1.94772 10.5 2.5V9.5C10.5 10.0523 10.0523 10.5 9.5 10.5H2.5C1.94772 10.5 1.5 10.0523 1.5 9.5V2.5C1.5 1.94772 1.94772 1.5 2.5 1.5Z" stroke="#FDFDFD" stroke-width="1.5" stroke-linecap="round" stroke-linejoin="round"/>
<path d="M1.5 7.5H10.5M4.5 5L6 3.5L7.5 5M2.5 1.5H9.5C10.0523 1.5 10.5 1.94772 10.5 2.5V9.5C10.5 10.0523 10.0523 10.5 9.5 10.5H2.5C1.94772 10.5 1.5 10.0523 1.5 9.5V2.5C1.5 1.94772 1.94772 1.5 2.5 1.5Z" stroke="#4C515B" stroke-width="1.5" stroke-linecap="round" stroke-linejoin="round"/>
</g>
<defs>
<clipPath id="clip0_559_1060">
<rect width="12" height="12" fill="white"/>
</clipPath>
</defs>
</svg>
