<svg width="50" height="50" viewBox="0 0 50 50" fill="none" xmlns="http://www.w3.org/2000/svg">
<path d="M0 8C0 3.58172 3.58172 0 8 0H42C46.4183 0 50 3.58172 50 8V42C50 46.4183 46.4183 50 42 50H8C3.58172 50 0 46.4183 0 42V8Z" fill="url(#paint0_linear_60_574)" fill-opacity="0.1"/>
<path d="M32.5 21.6667V19.1667C32.5 18.2462 31.7538 17.5 30.8333 17.5H19.1667C18.2462 17.5 17.5 18.2462 17.5 19.1667V21.6667" stroke="url(#paint1_linear_60_574)" stroke-width="2.5" stroke-linecap="round" stroke-linejoin="round"/>
<path d="M32.5 28.3333V30.8333C32.5 31.7537 31.7538 32.4999 30.8333 32.4999H19.1667C18.2462 32.4999 17.5 31.7537 17.5 30.8333V28.3333" stroke="url(#paint2_linear_60_574)" stroke-width="2.5" stroke-linecap="round" stroke-linejoin="round"/>
<path d="M18.3333 25H16.6667" stroke="url(#paint3_linear_60_574)" stroke-width="2.5" stroke-linecap="round" stroke-linejoin="round"/>
<path d="M23.3333 25H21.6667" stroke="url(#paint4_linear_60_574)" stroke-width="2.5" stroke-linecap="round" stroke-linejoin="round"/>
<path d="M28.3333 25H26.6667" stroke="url(#paint5_linear_60_574)" stroke-width="2.5" stroke-linecap="round" stroke-linejoin="round"/>
<path d="M33.3333 25H31.6667" stroke="url(#paint6_linear_60_574)" stroke-width="2.5" stroke-linecap="round" stroke-linejoin="round"/>
<path d="M20.8333 21.6667V28.3334" stroke="url(#paint7_linear_60_574)" stroke-width="2.5" stroke-linecap="round" stroke-linejoin="round"/>
<path d="M29.1667 21.6667V28.3334" stroke="url(#paint8_linear_60_574)" stroke-width="2.5" stroke-linecap="round" stroke-linejoin="round"/>
<path d="M16.6667 21.6667H33.3333" stroke="url(#paint9_linear_60_574)" stroke-width="2.5" stroke-linecap="round" stroke-linejoin="round"/>
<path d="M16.6667 28.3333H33.3333" stroke="url(#paint10_linear_60_574)" stroke-width="2.5" stroke-linecap="round" stroke-linejoin="round"/>
<defs>
<linearGradient id="paint0_linear_60_574" x1="4.5" y1="2" x2="44.5" y2="50" gradientUnits="userSpaceOnUse">
<stop stop-color="#0044A3"/>
<stop offset="1" stop-color="#03BDD4"/>
</linearGradient>
<linearGradient id="paint1_linear_60_574" x1="25" y1="17.5" x2="25" y2="21.6667" gradientUnits="userSpaceOnUse">
<stop stop-color="#014DA7"/>
<stop offset="1" stop-color="#03BBD3"/>
</linearGradient>
<linearGradient id="paint2_linear_60_574" x1="25" y1="28.3333" x2="25" y2="32.4999" gradientUnits="userSpaceOnUse">
<stop stop-color="#014DA7"/>
<stop offset="1" stop-color="#03BBD3"/>
</linearGradient>
<linearGradient id="paint3_linear_60_574" x1="17.5" y1="25" x2="17.5" y2="26" gradientUnits="userSpaceOnUse">
<stop stop-color="#014DA7"/>
<stop offset="1" stop-color="#03BBD3"/>
</linearGradient>
<linearGradient id="paint4_linear_60_574" x1="22.5" y1="25" x2="22.5" y2="26" gradientUnits="userSpaceOnUse">
<stop stop-color="#014DA7"/>
<stop offset="1" stop-color="#03BBD3"/>
</linearGradient>
<linearGradient id="paint5_linear_60_574" x1="27.5" y1="25" x2="27.5" y2="26" gradientUnits="userSpaceOnUse">
<stop stop-color="#014DA7"/>
<stop offset="1" stop-color="#03BBD3"/>
</linearGradient>
<linearGradient id="paint6_linear_60_574" x1="32.5" y1="25" x2="32.5" y2="26" gradientUnits="userSpaceOnUse">
<stop stop-color="#014DA7"/>
<stop offset="1" stop-color="#03BBD3"/>
</linearGradient>
<linearGradient id="paint7_linear_60_574" x1="21.3333" y1="21.6667" x2="21.3333" y2="28.3334" gradientUnits="userSpaceOnUse">
<stop stop-color="#014DA7"/>
<stop offset="1" stop-color="#03BBD3"/>
</linearGradient>
<linearGradient id="paint8_linear_60_574" x1="29.6667" y1="21.6667" x2="29.6667" y2="28.3334" gradientUnits="userSpaceOnUse">
<stop stop-color="#014DA7"/>
<stop offset="1" stop-color="#03BBD3"/>
</linearGradient>
<linearGradient id="paint9_linear_60_574" x1="25" y1="21.6667" x2="25" y2="22.6667" gradientUnits="userSpaceOnUse">
<stop stop-color="#014DA7"/>
<stop offset="1" stop-color="#03BBD3"/>
</linearGradient>
<linearGradient id="paint10_linear_60_574" x1="25" y1="28.3333" x2="25" y2="29.3333" gradientUnits="userSpaceOnUse">
<stop stop-color="#014DA7"/>
<stop offset="1" stop-color="#03BBD3"/>
</linearGradient>
</defs>
</svg>
